<svg xmlns="http://www.w3.org/2000/svg" xmlns:xlink="http://www.w3.org/1999/xlink" width="1024" zoomAndPan="magnify" viewBox="0 0 768 767.999994" height="1024" preserveAspectRatio="xMidYMid meet" version="1.0"><defs><clipPath id="2761a762f0"><path d="M 270 348 L 473 348 L 473 556 L 270 556 Z M 270 348 " clip-rule="nonzero"/></clipPath><clipPath id="234824444e"><path d="M -18.660156 349.042969 L 730.3125 56.707031 L 897.746094 485.691406 L 148.777344 778.023438 Z M -18.660156 349.042969 " clip-rule="nonzero"/></clipPath><clipPath id="10aa3b918d"><path d="M -18.660156 349.042969 L 730.3125 56.707031 L 897.746094 485.691406 L 148.777344 778.023438 Z M -18.660156 349.042969 " clip-rule="nonzero"/></clipPath><clipPath id="a56d05f853"><path d="M 264 343 L 479 343 L 479 561 L 264 561 Z M 264 343 " clip-rule="nonzero"/></clipPath><clipPath id="4b51f5806c"><path d="M -18.660156 349.042969 L 730.3125 56.707031 L 897.746094 485.691406 L 148.777344 778.023438 Z M -18.660156 349.042969 " clip-rule="nonzero"/></clipPath><clipPath id="faa71fd879"><path d="M -18.660156 349.042969 L 730.3125 56.707031 L 897.746094 485.691406 L 148.777344 778.023438 Z M -18.660156 349.042969 " clip-rule="nonzero"/></clipPath><clipPath id="0f69a0c035"><path d="M 214 407 L 367 407 L 367 706 L 214 706 Z M 214 407 " clip-rule="nonzero"/></clipPath><clipPath id="5303ee5d78"><path d="M -18.660156 349.042969 L 730.3125 56.707031 L 897.746094 485.691406 L 148.777344 778.023438 Z M -18.660156 349.042969 " clip-rule="nonzero"/></clipPath><clipPath id="ef04251035"><path d="M -18.660156 349.042969 L 730.3125 56.707031 L 897.746094 485.691406 L 148.777344 778.023438 Z M -18.660156 349.042969 " clip-rule="nonzero"/></clipPath><clipPath id="87ea422c07"><path d="M 209 402 L 372 402 L 372 711 L 209 711 Z M 209 402 " clip-rule="nonzero"/></clipPath><clipPath id="a091e33cf3"><path d="M -18.660156 349.042969 L 730.3125 56.707031 L 897.746094 485.691406 L 148.777344 778.023438 Z M -18.660156 349.042969 " clip-rule="nonzero"/></clipPath><clipPath id="0fba58b9fa"><path d="M -18.660156 349.042969 L 730.3125 56.707031 L 897.746094 485.691406 L 148.777344 778.023438 Z M -18.660156 349.042969 " clip-rule="nonzero"/></clipPath><clipPath id="4e4770f447"><path d="M 136 205 L 574 205 L 574 483 L 136 483 Z M 136 205 " clip-rule="nonzero"/></clipPath><clipPath id="d12c26fb61"><path d="M -18.660156 349.042969 L 730.3125 56.707031 L 897.746094 485.691406 L 148.777344 778.023438 Z M -18.660156 349.042969 " clip-rule="nonzero"/></clipPath><clipPath id="e948bb72cb"><path d="M -18.660156 349.042969 L 730.3125 56.707031 L 897.746094 485.691406 L 148.777344 778.023438 Z M -18.660156 349.042969 " clip-rule="nonzero"/></clipPath><clipPath id="bc95f895fb"><path d="M 131 199 L 579 199 L 579 488 L 131 488 Z M 131 199 " clip-rule="nonzero"/></clipPath><clipPath id="b5cb04173b"><path d="M -18.660156 349.042969 L 730.3125 56.707031 L 897.746094 485.691406 L 148.777344 778.023438 Z M -18.660156 349.042969 " clip-rule="nonzero"/></clipPath><clipPath id="bea8a3397c"><path d="M -18.660156 349.042969 L 730.3125 56.707031 L 897.746094 485.691406 L 148.777344 778.023438 Z M -18.660156 349.042969 " clip-rule="nonzero"/></clipPath><clipPath id="e457c411be"><path d="M 7 183 L 471 183 L 471 446 L 7 446 Z M 7 183 " clip-rule="nonzero"/></clipPath><clipPath id="0667605646"><path d="M -18.660156 349.042969 L 730.3125 56.707031 L 897.746094 485.691406 L 148.777344 778.023438 Z M -18.660156 349.042969 " clip-rule="nonzero"/></clipPath><clipPath id="e27d48fa7e"><path d="M -18.660156 349.042969 L 730.3125 56.707031 L 897.746094 485.691406 L 148.777344 778.023438 Z M -18.660156 349.042969 " clip-rule="nonzero"/></clipPath><clipPath id="57d3ac9a1a"><path d="M 1 178 L 476 178 L 476 452 L 1 452 Z M 1 178 " clip-rule="nonzero"/></clipPath><clipPath id="4ffa3968b0"><path d="M -18.660156 349.042969 L 730.3125 56.707031 L 897.746094 485.691406 L 148.777344 778.023438 Z M -18.660156 349.042969 " clip-rule="nonzero"/></clipPath><clipPath id="b7203121c6"><path d="M -18.660156 349.042969 L 730.3125 56.707031 L 897.746094 485.691406 L 148.777344 778.023438 Z M -18.660156 349.042969 " clip-rule="nonzero"/></clipPath><clipPath id="2395809081"><path d="M 442 185 L 523 185 L 523 274 L 442 274 Z M 442 185 " clip-rule="nonzero"/></clipPath><clipPath id="ab3328a5c6"><path d="M -18.660156 349.042969 L 730.3125 56.707031 L 897.746094 485.691406 L 148.777344 778.023438 Z M -18.660156 349.042969 " clip-rule="nonzero"/></clipPath><clipPath id="ff93b5235c"><path d="M -18.660156 349.042969 L 730.3125 56.707031 L 897.746094 485.691406 L 148.777344 778.023438 Z M -18.660156 349.042969 " clip-rule="nonzero"/></clipPath><clipPath id="9915d33928"><path d="M 436 180 L 529 180 L 529 279 L 436 279 Z M 436 180 " clip-rule="nonzero"/></clipPath><clipPath id="6b6194ef7c"><path d="M -18.660156 349.042969 L 730.3125 56.707031 L 897.746094 485.691406 L 148.777344 778.023438 Z M -18.660156 349.042969 " clip-rule="nonzero"/></clipPath><clipPath id="d4cc7cdd1a"><path d="M -18.660156 349.042969 L 730.3125 56.707031 L 897.746094 485.691406 L 148.777344 778.023438 Z M -18.660156 349.042969 " clip-rule="nonzero"/></clipPath><clipPath id="39023ac1e9"><path d="M 459 114 L 675 114 L 675 283 L 459 283 Z M 459 114 " clip-rule="nonzero"/></clipPath><clipPath id="81707e6cbf"><path d="M -18.660156 349.042969 L 730.3125 56.707031 L 897.746094 485.691406 L 148.777344 778.023438 Z M -18.660156 349.042969 " clip-rule="nonzero"/></clipPath><clipPath id="690c05290f"><path d="M -18.660156 349.042969 L 730.3125 56.707031 L 897.746094 485.691406 L 148.777344 778.023438 Z M -18.660156 349.042969 " clip-rule="nonzero"/></clipPath><clipPath id="16e059ea91"><path d="M 453 109 L 680 109 L 680 289 L 453 289 Z M 453 109 " clip-rule="nonzero"/></clipPath><clipPath id="831718e2f1"><path d="M -18.660156 349.042969 L 730.3125 56.707031 L 897.746094 485.691406 L 148.777344 778.023438 Z M -18.660156 349.042969 " clip-rule="nonzero"/></clipPath><clipPath id="5775484c5d"><path d="M -18.660156 349.042969 L 730.3125 56.707031 L 897.746094 485.691406 L 148.777344 778.023438 Z M -18.660156 349.042969 " clip-rule="nonzero"/></clipPath><clipPath id="a8266bd79d"><path d="M 634 128 L 673 128 L 673 189 L 634 189 Z M 634 128 " clip-rule="nonzero"/></clipPath><clipPath id="9a4074823d"><path d="M -18.660156 349.042969 L 730.3125 56.707031 L 897.746094 485.691406 L 148.777344 778.023438 Z M -18.660156 349.042969 " clip-rule="nonzero"/></clipPath><clipPath id="a632c205d1"><path d="M -18.660156 349.042969 L 730.3125 56.707031 L 897.746094 485.691406 L 148.777344 778.023438 Z M -18.660156 349.042969 " clip-rule="nonzero"/></clipPath><clipPath id="d28724dfb4"><path d="M 629 122 L 678 122 L 678 195 L 629 195 Z M 629 122 " clip-rule="nonzero"/></clipPath><clipPath id="ba7709a805"><path d="M -18.660156 349.042969 L 730.3125 56.707031 L 897.746094 485.691406 L 148.777344 778.023438 Z M -18.660156 349.042969 " clip-rule="nonzero"/></clipPath><clipPath id="f1f3b43d44"><path d="M -18.660156 349.042969 L 730.3125 56.707031 L 897.746094 485.691406 L 148.777344 778.023438 Z M -18.660156 349.042969 " clip-rule="nonzero"/></clipPath><clipPath id="cb26a892e3"><path d="M 572 114 L 675 114 L 675 231 L 572 231 Z M 572 114 " clip-rule="nonzero"/></clipPath><clipPath id="c6c5369908"><path d="M -18.660156 349.042969 L 730.3125 56.707031 L 897.746094 485.691406 L 148.777344 778.023438 Z M -18.660156 349.042969 " clip-rule="nonzero"/></clipPath><clipPath id="8be07a562e"><path d="M -18.660156 349.042969 L 730.3125 56.707031 L 897.746094 485.691406 L 148.777344 778.023438 Z M -18.660156 349.042969 " clip-rule="nonzero"/></clipPath><clipPath id="3c0bb13ec9"><path d="M 567 109 L 680 109 L 680 236 L 567 236 Z M 567 109 " clip-rule="nonzero"/></clipPath><clipPath id="b8a406c3e1"><path d="M -18.660156 349.042969 L 730.3125 56.707031 L 897.746094 485.691406 L 148.777344 778.023438 Z M -18.660156 349.042969 " clip-rule="nonzero"/></clipPath><clipPath id="6f1dc04c73"><path d="M -18.660156 349.042969 L 730.3125 56.707031 L 897.746094 485.691406 L 148.777344 778.023438 Z M -18.660156 349.042969 " clip-rule="nonzero"/></clipPath><clipPath id="c444a5f789"><path d="M 80 302 L 165 302 L 165 430 L 80 430 Z M 80 302 " clip-rule="nonzero"/></clipPath><clipPath id="3e01eec1cc"><path d="M -18.660156 349.042969 L 730.3125 56.707031 L 897.746094 485.691406 L 148.777344 778.023438 Z M -18.660156 349.042969 " clip-rule="nonzero"/></clipPath><clipPath id="9c4a0b2f9c"><path d="M -18.660156 349.042969 L 730.3125 56.707031 L 897.746094 485.691406 L 148.777344 778.023438 Z M -18.660156 349.042969 " clip-rule="nonzero"/></clipPath><clipPath id="c678850abb"><path d="M 74 296 L 170 296 L 170 436 L 74 436 Z M 74 296 " clip-rule="nonzero"/></clipPath><clipPath id="582095a2b3"><path d="M -18.660156 349.042969 L 730.3125 56.707031 L 897.746094 485.691406 L 148.777344 778.023438 Z M -18.660156 349.042969 " clip-rule="nonzero"/></clipPath><clipPath id="cd974b0de8"><path d="M -18.660156 349.042969 L 730.3125 56.707031 L 897.746094 485.691406 L 148.777344 778.023438 Z M -18.660156 349.042969 " clip-rule="nonzero"/></clipPath><clipPath id="528ee08177"><path d="M 675 79 L 727 79 L 727 125 L 675 125 Z M 675 79 " clip-rule="nonzero"/></clipPath><clipPath id="4d52542802"><path d="M -18.660156 349.042969 L 730.3125 56.707031 L 897.746094 485.691406 L 148.777344 778.023438 Z M -18.660156 349.042969 " clip-rule="nonzero"/></clipPath><clipPath id="5c2025bf41"><path d="M -18.660156 349.042969 L 730.3125 56.707031 L 897.746094 485.691406 L 148.777344 778.023438 Z M -18.660156 349.042969 " clip-rule="nonzero"/></clipPath><clipPath id="c0836f2fd5"><path d="M 669 74 L 732 74 L 732 130 L 669 130 Z M 669 74 " clip-rule="nonzero"/></clipPath><clipPath id="c8100e8913"><path d="M -18.660156 349.042969 L 730.3125 56.707031 L 897.746094 485.691406 L 148.777344 778.023438 Z M -18.660156 349.042969 " clip-rule="nonzero"/></clipPath><clipPath id="6db78935c1"><path d="M -18.660156 349.042969 L 730.3125 56.707031 L 897.746094 485.691406 L 148.777344 778.023438 Z M -18.660156 349.042969 " clip-rule="nonzero"/></clipPath><clipPath id="aac8e2be3c"><path d="M 692 167 L 761 167 L 761 169 L 692 169 Z M 692 167 " clip-rule="nonzero"/></clipPath><clipPath id="ad457e44dd"><path d="M -18.660156 349.042969 L 730.3125 56.707031 L 897.746094 485.691406 L 148.777344 778.023438 Z M -18.660156 349.042969 " clip-rule="nonzero"/></clipPath><clipPath id="824bbc21c0"><path d="M -18.660156 349.042969 L 730.3125 56.707031 L 897.746094 485.691406 L 148.777344 778.023438 Z M -18.660156 349.042969 " clip-rule="nonzero"/></clipPath><clipPath id="326fa2bb65"><path d="M 687 161 L 766 161 L 766 175 L 687 175 Z M 687 161 " clip-rule="nonzero"/></clipPath><clipPath id="99e2c91fef"><path d="M -18.660156 349.042969 L 730.3125 56.707031 L 897.746094 485.691406 L 148.777344 778.023438 Z M -18.660156 349.042969 " clip-rule="nonzero"/></clipPath><clipPath id="848ca3da30"><path d="M -18.660156 349.042969 L 730.3125 56.707031 L 897.746094 485.691406 L 148.777344 778.023438 Z M -18.660156 349.042969 " clip-rule="nonzero"/></clipPath><clipPath id="74a31128b7"><path d="M 677 113 L 755 113 L 755 151 L 677 151 Z M 677 113 " clip-rule="nonzero"/></clipPath><clipPath id="f50eb63fd4"><path d="M -18.660156 349.042969 L 730.3125 56.707031 L 897.746094 485.691406 L 148.777344 778.023438 Z M -18.660156 349.042969 " clip-rule="nonzero"/></clipPath><clipPath id="efbd7091cb"><path d="M -18.660156 349.042969 L 730.3125 56.707031 L 897.746094 485.691406 L 148.777344 778.023438 Z M -18.660156 349.042969 " clip-rule="nonzero"/></clipPath></defs><g clip-path="url(#2761a762f0)"><g clip-path="url(#234824444e)"><g clip-path="url(#10aa3b918d)"><path fill="#daaa78" d="M 416.867188 468.605469 C 402.417969 486.710938 330.492188 502.320312 330.492188 502.320312 L 319.785156 419.769531 L 428.421875 391.332031 C 428.421875 391.332031 429.042969 453.339844 416.867188 468.605469 Z M 270.136719 401.5625 L 290.113281 555.664062 C 290.113281 555.664062 424.363281 526.582031 451.363281 492.726562 C 474.113281 464.246094 472.90625 348.511719 472.90625 348.511719 L 270.136719 401.5625 " fill-opacity="1" fill-rule="nonzero"/></g></g></g><g clip-path="url(#a56d05f853)"><g clip-path="url(#4b51f5806c)"><g clip-path="url(#faa71fd879)"><path stroke-linecap="round" transform="matrix(0.325826, -0.127174, -0.127174, -0.325826, 17.441574, 1380.616368)" fill="none" stroke-linejoin="round" d="M 2011.901665 2013.804469 C 1954.596423 1980.603497 1746.804326 2013.800341 1746.804326 2013.800341 L 1804.103175 2244.79457 L 2123.005767 2207.600971 C 2123.005767 2207.600971 2060.199729 2041.805223 2011.901665 2013.804469 Z M 1690.797868 2344.898783 L 1583.80662 1913.70181 C 1583.80662 1913.70181 1971.597021 1851.598544 2078.702625 1913.700511 C 2168.9013 1965.904924 2285.998234 2275.403796 2285.998234 2275.403796 Z M 1690.797868 2344.898783 " stroke="#191a1b" stroke-width="30" stroke-opacity="1" stroke-miterlimit="10"/></g></g></g><g clip-path="url(#0f69a0c035)"><g clip-path="url(#5303ee5d78)"><g clip-path="url(#ef04251035)"><path fill="#daaa78" d="M 366.257812 687.65625 L 326.84375 407.363281 L 214.941406 423.105469 L 254.359375 703.398438 C 254.359375 703.398438 306.566406 714.03125 366.257812 687.65625 " fill-opacity="1" fill-rule="nonzero"/></g></g></g><g clip-path="url(#87ea422c07)"><g clip-path="url(#a091e33cf3)"><g clip-path="url(#0fba58b9fa)"><path stroke-linecap="round" transform="matrix(0.325826, -0.127174, -0.127174, -0.325826, 17.441574, 1380.616368)" fill="none" stroke-linejoin="round" d="M 1649.395575 1483.000972 L 1835.799783 2270.499309 L 1521.397022 2344.900074 L 1335.003218 1557.397677 C 1335.003218 1557.397677 1462.996803 1474.806666 1649.395575 1483.000972 Z M 1649.395575 1483.000972 " stroke="#191a1b" stroke-width="30" stroke-opacity="1" stroke-miterlimit="10"/></g></g></g><g clip-path="url(#4e4770f447)"><g clip-path="url(#d12c26fb61)"><g clip-path="url(#e948bb72cb)"><path fill="#daaa78" d="M 487.980469 208.589844 L 476.609375 213.027344 L 503.824219 282.753906 L 136.257812 426.21875 L 148.164062 456.71875 C 156.621094 478.382812 183.089844 488.289062 207.265625 478.855469 L 542.410156 348.042969 C 566.585938 338.605469 579.347656 313.390625 570.890625 291.722656 L 547.070312 230.695312 C 538.625 209.058594 512.15625 199.152344 487.980469 208.589844 " fill-opacity="1" fill-rule="nonzero"/></g></g></g><g clip-path="url(#bc95f895fb)"><g clip-path="url(#b5cb04173b)"><g clip-path="url(#bea8a3397c)"><path stroke-linecap="round" transform="matrix(0.325826, -0.127174, -0.127174, -0.325826, 17.441574, 1380.616368)" fill="none" stroke-linejoin="round" d="M 2471.602376 2632.397884 L 2436.703878 2632.39998 L 2436.702954 2418.400759 L 1308.596652 2418.403796 L 1308.60118 2324.793696 C 1308.604546 2258.302652 1368.802722 2204.402989 1442.998602 2204.39625 L 2471.600527 2204.399442 C 2545.800467 2204.403106 2606.001817 2258.293255 2606.002511 2324.794702 L 2606.001071 2512.095851 C 2606.000492 2578.501886 2545.802316 2632.401548 2471.602376 2632.397884 Z M 2471.602376 2632.397884 " stroke="#191a1b" stroke-width="30" stroke-opacity="1" stroke-miterlimit="10"/></g></g></g><g clip-path="url(#e457c411be)"><g clip-path="url(#0667605646)"><g clip-path="url(#e27d48fa7e)"><path fill="#daaa78" d="M 434.039062 192.171875 L 469.1875 282.230469 C 471.808594 288.941406 468.277344 296.628906 461.304688 299.351562 L 100.679688 440.105469 C 63.371094 454.667969 23.144531 440.820312 10.820312 409.25 C -1.515625 377.644531 18.707031 340.238281 56.015625 325.675781 L 416.640625 184.921875 C 423.613281 182.199219 431.417969 185.460938 434.039062 192.171875 " fill-opacity="1" fill-rule="nonzero"/></g></g></g><g clip-path="url(#57d3ac9a1a)"><g clip-path="url(#4ffa3968b0)"><g clip-path="url(#b7203121c6)"><path stroke-linecap="round" transform="matrix(0.325826, -0.127174, -0.127174, -0.325826, 17.441574, 1380.616368)" fill="none" stroke-linejoin="round" d="M 2345.00346 2732.199908 L 2344.996504 2455.801483 C 2345.001104 2435.202977 2327.604515 2418.39919 2306.203375 2418.396161 L 1199.402801 2418.403502 C 1084.897553 2418.402258 992.154447 2497.101304 992.149354 2593.996548 C 992.149596 2690.997609 1084.895805 2769.60203 1199.401053 2769.603274 L 2306.201627 2769.595933 C 2327.602768 2769.598962 2344.99886 2752.798414 2345.00346 2732.199908 Z M 2345.00346 2732.199908 " stroke="#191a1b" stroke-width="30" stroke-opacity="1" stroke-miterlimit="10"/></g></g></g><g clip-path="url(#2395809081)"><g clip-path="url(#ab3328a5c6)"><g clip-path="url(#ff93b5235c)"><path fill="#daaa78" d="M 496.566406 185.375 L 522.851562 252.722656 L 469.742188 273.453125 C 466.289062 274.800781 457.597656 260.808594 450.335938 242.203125 C 443.089844 223.632812 440.003906 207.453125 443.457031 206.105469 L 496.566406 185.375 " fill-opacity="1" fill-rule="nonzero"/></g></g></g><g clip-path="url(#9915d33928)"><g clip-path="url(#6b6194ef7c)"><g clip-path="url(#d4cc7cdd1a)"><path stroke-linecap="round" transform="matrix(0.325826, -0.127174, -0.127174, -0.325826, 17.441574, 1380.616368)" fill="none" stroke-linejoin="round" d="M 2518.602951 2685.302216 L 2518.598912 2478.605373 L 2355.598336 2478.60222 C 2345.000411 2478.602602 2336.397516 2524.904207 2336.398154 2582.006479 C 2336.40386 2638.998875 2345.00445 2685.299446 2355.602375 2685.299063 Z M 2518.602951 2685.302216 " stroke="#191a1b" stroke-width="30" stroke-opacity="1" stroke-miterlimit="10"/></g></g></g><g clip-path="url(#39023ac1e9)"><g clip-path="url(#81707e6cbf)"><g clip-path="url(#690c05290f)"><path fill="#daaa78" d="M 674.332031 198.707031 L 503.757812 282.78125 L 459.171875 168.546875 L 641.585938 114.804688 L 674.332031 198.707031 " fill-opacity="1" fill-rule="nonzero"/></g></g></g><g clip-path="url(#16e059ea91)"><g clip-path="url(#831718e2f1)"><g clip-path="url(#5775484c5d)"><path stroke-linecap="round" transform="matrix(0.325826, -0.127174, -0.127174, -0.325826, 17.441574, 1380.616368)" fill="none" stroke-linejoin="round" d="M 2978.200248 2464.99769 L 2436.497664 2418.396965 L 2436.500955 2768.995331 L 2978.205816 2722.502353 Z M 2978.200248 2464.99769 " stroke="#191a1b" stroke-width="30" stroke-opacity="1" stroke-miterlimit="10"/></g></g></g><g clip-path="url(#a8266bd79d)"><g clip-path="url(#9a4074823d)"><g clip-path="url(#a632c205d1)"><path fill="#daaa78" d="M 667.953125 152.835938 C 674.390625 169.324219 673.121094 185.210938 665.105469 188.339844 C 657.089844 191.46875 645.390625 180.640625 638.957031 164.152344 C 632.535156 147.699219 633.816406 131.84375 641.832031 128.714844 C 649.847656 125.585938 661.53125 136.382812 667.953125 152.835938 " fill-opacity="1" fill-rule="nonzero"/></g></g></g><g clip-path="url(#d28724dfb4)"><g clip-path="url(#ba7709a805)"><g clip-path="url(#f1f3b43d44)"><path stroke-linecap="round" transform="matrix(0.325826, -0.127174, -0.127174, -0.325826, 17.441574, 1380.616368)" fill="none" stroke-linejoin="round" d="M 3008.896138 2593.800833 C 3008.901219 2543.194243 2989.004936 2502.201686 2964.403661 2502.20088 C 2939.802386 2502.200074 2919.899354 2543.201364 2919.904677 2593.803893 C 2919.904664 2644.300606 2939.799673 2685.19775 2964.400948 2685.198556 C 2989.002223 2685.199363 3008.896125 2644.297546 3008.896138 2593.800833 Z M 3008.896138 2593.800833 " stroke="#191a1b" stroke-width="30" stroke-opacity="1" stroke-miterlimit="10"/></g></g></g><g clip-path="url(#cb26a892e3)"><g clip-path="url(#c6c5369908)"><g clip-path="url(#8be07a562e)"><path fill="#daaa78" d="M 572.988281 135.007812 L 610.1875 230.3125 L 674.332031 198.707031 L 641.585938 114.804688 L 572.988281 135.007812 " fill-opacity="1" fill-rule="nonzero"/></g></g></g><g clip-path="url(#3c0bb13ec9)"><g clip-path="url(#b8a406c3e1)"><g clip-path="url(#6f1dc04c73)"><path stroke-linecap="round" transform="matrix(0.325826, -0.127174, -0.127174, -0.325826, 17.441574, 1380.616368)" fill="none" stroke-linejoin="round" d="M 2774.502331 2740.004563 L 2774.503797 2447.501929 L 2978.200248 2464.99769 L 2978.205816 2722.502353 Z M 2774.502331 2740.004563 " stroke="#191a1b" stroke-width="30" stroke-opacity="1" stroke-miterlimit="10"/></g></g></g><g clip-path="url(#c444a5f789)"><g clip-path="url(#3e01eec1cc)"><g clip-path="url(#9c4a0b2f9c)"><path fill="#daaa78" d="M 164.34375 415.257812 L 126.777344 429.921875 C 98.855469 384.351562 86.019531 344.640625 80.191406 316.242188 L 116.066406 302.238281 C 125.289062 343.28125 147.023438 385.785156 164.34375 415.257812 " fill-opacity="1" fill-rule="nonzero"/></g></g></g><g clip-path="url(#c678850abb)"><g clip-path="url(#582095a2b3)"><g clip-path="url(#cd974b0de8)"><path stroke-linecap="round" transform="matrix(0.325826, -0.127174, -0.127174, -0.325826, 17.441574, 1380.616368)" fill="none" stroke-linejoin="round" d="M 1394.794497 2418.400142 L 1279.497018 2418.396408 C 1252.503215 2568.793459 1259.597812 2687.902201 1273.596933 2769.596534 L 1383.703296 2769.600326 C 1365.60046 2650.700072 1379.302311 2514.902231 1394.794497 2418.400142 Z M 1394.794497 2418.400142 " stroke="#191a1b" stroke-width="30" stroke-opacity="1" stroke-miterlimit="10"/></g></g></g><g clip-path="url(#528ee08177)"><g clip-path="url(#4d52542802)"><g clip-path="url(#5c2025bf41)"><path fill="#daaa78" d="M 675.09375 124.179688 L 726.1875 79.71875 " fill-opacity="1" fill-rule="nonzero"/></g></g></g><g clip-path="url(#c0836f2fd5)"><g clip-path="url(#c8100e8913)"><g clip-path="url(#6db78935c1)"><path stroke-linecap="round" transform="matrix(0.325826, -0.127174, -0.127174, -0.325826, 17.441574, 1380.616368)" fill="none" stroke-linejoin="round" d="M 3057.703919 2662.700149 L 3240.005146 2728.001795 " stroke="#191a1b" stroke-width="30" stroke-opacity="1" stroke-miterlimit="10"/></g></g></g><g clip-path="url(#aac8e2be3c)"><g clip-path="url(#ad457e44dd)"><g clip-path="url(#824bbc21c0)"><path fill="#daaa78" d="M 760.269531 167.042969 L 692.554688 168.917969 " fill-opacity="1" fill-rule="nonzero"/></g></g></g><g clip-path="url(#326fa2bb65)"><g clip-path="url(#99e2c91fef)"><g clip-path="url(#848ca3da30)"><path stroke-linecap="round" transform="matrix(0.325826, -0.127174, -0.127174, -0.325826, 17.441574, 1380.616368)" fill="none" stroke-linejoin="round" d="M 3240.00047 2459.99462 L 3057.701256 2525.393781 " stroke="#191a1b" stroke-width="30" stroke-opacity="1" stroke-miterlimit="10"/></g></g></g><g clip-path="url(#74a31128b7)"><g clip-path="url(#f50eb63fd4)"><g clip-path="url(#efbd7091cb)"><path stroke-linecap="round" transform="matrix(0.325826, -0.127174, -0.127174, -0.325826, 17.441574, 1380.616368)" fill="none" stroke-linejoin="round" d="M 3057.705446 2599.398836 L 3259.802175 2599.403955 " stroke="#191a1b" stroke-width="30" stroke-opacity="1" stroke-miterlimit="10"/></g></g></g></svg>